<svg width="144" height="144" viewBox="0 0 144 144" fill="none" xmlns="http://www.w3.org/2000/svg">
<path d="M72 102C33.3 102 3 88.8 3 72C3 55.2 33.3 42 72 42C110.7 42 141 55.2 141 72C141 88.8 110.7 102 72 102ZM72 48C34.2 48 9 60.3 9 72C9 83.7 34.2 96 72 96C109.8 96 135 83.7 135 72C135 60.3 109.8 48 72 48Z" fill="white"/>
<path d="M45.3007 133.8C42.3007 133.8 39.9007 133.2 37.5007 131.7C22.8007 123.3 26.7007 90.5999 45.9007 56.9999C54.9007 41.3999 66.0007 28.1999 76.8007 19.7999C88.5007 10.7999 99.0007 8.09989 106.201 12.2999C113.701 16.4999 116.401 26.9999 114.601 41.6999C112.801 55.4999 106.801 71.6999 97.8007 87.2999C88.8007 102.9 77.7007 116.1 66.9007 124.5C59.1007 130.5 51.6007 133.8 45.3007 133.8ZM98.7007 16.1999C93.9007 16.1999 87.6007 18.8999 80.7007 24.2999C70.5007 32.3999 60.0007 44.9999 51.3007 59.9999C32.4007 92.6999 30.6007 120.9 40.5007 126.6C45.6007 129.6 54.0007 126.9 63.3007 119.7C73.5007 111.6 84.0007 98.9999 92.7007 83.9999C101.401 68.9999 107.101 53.6999 108.901 40.7999C110.401 28.7999 108.601 20.3999 103.501 17.3999C102.001 16.7999 100.501 16.1999 98.7007 16.1999Z" fill="white"/>
<path d="M98.9997 133.8C83.9997 133.8 62.3997 115.5 46.1997 87.0002C26.6997 53.4002 22.7997 20.7002 37.4997 12.3002C52.1997 3.90021 78.5997 23.4002 98.0997 57.0002C107.1 72.6002 113.1 88.8002 114.9 102.6C117 117.3 114 127.5 106.5 132C104.1 133.2 101.7 133.8 98.9997 133.8ZM40.4997 17.4002C30.5997 23.1002 32.3997 51.3002 51.2997 84.0002C70.1997 116.7 93.5997 132.3 103.5 126.6C108.6 123.6 110.4 115.2 108.9 103.2C107.1 90.3002 101.4 75.0002 92.6997 60.0002C73.7997 27.3002 50.3997 11.7002 40.4997 17.4002Z" fill="white"/>
<path d="M72 84C78.6274 84 84 78.6274 84 72C84 65.3726 78.6274 60 72 60C65.3726 60 60 65.3726 60 72C60 78.6274 65.3726 84 72 84Z" fill="white"/>
</svg>
